<svg width="131" height="36" viewBox="0 0 131 36" fill="none" xmlns="http://www.w3.org/2000/svg">
<path d="M0.227295 35.5209V31.6198H1.25483C2.71621 31.6198 3.8522 31.1521 4.66281 30.2167C5.47342 29.2814 6.05569 27.77 6.40962 25.6825C6.77496 23.5951 7.02043 20.8289 7.14601 17.384L7.76253 0.479088H29.1352V35.5209H24.8881V4.24335H11.8042L11.2561 18.2053C11.1191 21.8783 10.7823 25.0038 10.2457 27.5818C9.70914 30.1597 8.76723 32.1274 7.42002 33.4848C6.07281 34.8422 4.10908 35.5209 1.52884 35.5209H0.227295Z" fill="white"/>
<path d="M67.2139 18C67.2139 21.6958 66.546 24.8897 65.2102 27.5818C63.8744 30.2738 62.0419 32.3498 59.7129 33.8099C57.3838 35.27 54.7236 36 51.7324 36C48.7411 36 46.0809 35.27 43.7519 33.8099C41.4228 32.3498 39.5904 30.2738 38.2546 27.5818C36.9188 24.8897 36.2509 21.6958 36.2509 18C36.2509 14.3042 36.9188 11.1103 38.2546 8.41825C39.5904 5.72624 41.4228 3.65019 43.7519 2.19011C46.0809 0.730038 48.7411 0 51.7324 0C54.7236 0 57.3838 0.730038 59.7129 2.19011C62.0419 3.65019 63.8744 5.72624 65.2102 8.41825C66.546 11.1103 67.2139 14.3042 67.2139 18ZM63.1037 18C63.1037 14.9658 62.5957 12.4049 61.5796 10.3175C60.5749 8.23004 59.2105 6.65019 57.4865 5.57795C55.774 4.5057 53.8559 3.96958 51.7324 3.96958C49.6088 3.96958 47.685 4.5057 45.9611 5.57795C44.2485 6.65019 42.8842 8.23004 41.8681 10.3175C40.8634 12.4049 40.361 14.9658 40.361 18C40.361 21.0342 40.8634 23.5951 41.8681 25.6825C42.8842 27.77 44.2485 29.3498 45.9611 30.4221C47.685 31.4943 49.6088 32.0304 51.7324 32.0304C53.8559 32.0304 55.774 31.4943 57.4865 30.4221C59.2105 29.3498 60.5749 27.77 61.5796 25.6825C62.5957 23.5951 63.1037 21.0342 63.1037 18Z" fill="white"/>
<path d="M95.5224 0.479088V4.24335H78.6023V35.5209H74.3552V0.479088H95.5224Z" fill="white"/>
<path d="M130.227 18C130.227 21.6958 129.559 24.8897 128.224 27.5818C126.888 30.2738 125.055 32.3498 122.726 33.8099C120.397 35.27 117.737 36 114.746 36C111.755 36 109.094 35.27 106.765 33.8099C104.436 32.3498 102.604 30.2738 101.268 27.5818C99.9322 24.8897 99.2643 21.6958 99.2643 18C99.2643 14.3042 99.9322 11.1103 101.268 8.41825C102.604 5.72624 104.436 3.65019 106.765 2.19011C109.094 0.730038 111.755 0 114.746 0C117.737 0 120.397 0.730038 122.726 2.19011C125.055 3.65019 126.888 5.72624 128.224 8.41825C129.559 11.1103 130.227 14.3042 130.227 18ZM126.117 18C126.117 14.9658 125.609 12.4049 124.593 10.3175C123.588 8.23004 122.224 6.65019 120.5 5.57795C118.787 4.5057 116.869 3.96958 114.746 3.96958C112.622 3.96958 110.698 4.5057 108.974 5.57795C107.262 6.65019 105.898 8.23004 104.881 10.3175C103.877 12.4049 103.374 14.9658 103.374 18C103.374 21.0342 103.877 23.5951 104.881 25.6825C105.898 27.77 107.262 29.3498 108.974 30.4221C110.698 31.4943 112.622 32.0304 114.746 32.0304C116.869 32.0304 118.787 31.4943 120.5 30.4221C122.224 29.3498 123.588 27.77 124.593 25.6825C125.609 23.5951 126.117 21.0342 126.117 18Z" fill="white"/>
</svg>
